<?xml version="1.0" encoding="iso-8859-1"?>
<!-- Uploaded to: SVG Repo, www.svgrepo.com, Generator: SVG Repo Mixer Tools -->
<svg height="800px" width="800px" version="1.1" id="Layer_1" xmlns="http://www.w3.org/2000/svg" xmlns:xlink="http://www.w3.org/1999/xlink" 
	 viewBox="0 0 511.999 511.999" xml:space="preserve">
<path style="fill:#FECB69;" d="M255.998,192v163.403l141.457-65.361C382.551,241.431,325.497,192,255.998,192z"/>
<path style="fill:#FFE0A2;" d="M255.998,192c-69.498,0-126.551,49.431-141.457,98.042l141.457,65.361l97.883-65.361
	C343.567,241.431,304.089,192,255.998,192z"/>
<path style="fill:#4B8D8F;" d="M503.827,260.084c-8.925,18.377-27.764,31.047-49.566,31.047L421.58,399.521l32.681,108.391h49.566
	V260.084z"/>
<path style="fill:#63ABA1;" d="M404.695,260.084c-8.924,18.376-27.764,31.047-49.566,31.047c-21.801,0-40.642-12.67-49.566-31.047
	c-8.924,18.376-27.764,31.047-49.566,31.047s-40.642-12.67-49.566-31.047c-8.924,18.376-27.764,31.047-49.566,31.047
	s-40.642-12.67-49.566-31.047c-8.924,18.376-27.764,31.047-49.566,31.047S17.095,278.46,8.17,260.084v247.828h446.091V291.131
	C432.46,291.132,413.62,278.461,404.695,260.084z"/>
<g>
	<path style="fill:#FFFFFF;" d="M165.037,364.662h-16.34c-4.513,0-8.17-3.657-8.17-8.17c0-4.513,3.657-8.17,8.17-8.17h16.34
		c4.513,0,8.17,3.657,8.17,8.17C173.207,361.005,169.55,364.662,165.037,364.662z"/>
	<path style="fill:#FFFFFF;" d="M412.865,462.704h-16.34c-4.513,0-8.17-3.657-8.17-8.17c0-4.513,3.657-8.17,8.17-8.17h16.34
		c4.513,0,8.17,3.657,8.17,8.17C421.036,459.047,417.379,462.704,412.865,462.704z"/>
	<path style="fill:#FFFFFF;" d="M462.431,430.023h-16.34c-4.513,0-8.17-3.657-8.17-8.17c0-4.513,3.657-8.17,8.17-8.17h16.34
		c4.513,0,8.17,3.657,8.17,8.17C470.601,426.366,466.944,430.023,462.431,430.023z"/>
	<path style="fill:#FFFFFF;" d="M363.3,397.343h-16.34c-4.513,0-8.17-3.657-8.17-8.17s3.657-8.17,8.17-8.17h16.34
		c4.513,0,8.17,3.657,8.17,8.17S367.813,397.343,363.3,397.343z"/>
	<path style="fill:#FFFFFF;" d="M65.906,397.343h-16.34c-4.513,0-8.17-3.657-8.17-8.17s3.657-8.17,8.17-8.17h16.34
		c4.513,0,8.17,3.657,8.17,8.17S70.419,397.343,65.906,397.343z"/>
</g>
<path d="M132.761,254.369c1.526,1.269,3.379,1.888,5.22,1.888c2.343,0,4.67-1.003,6.287-2.946
	c27.674-33.277,69.443-53.142,111.731-53.142s84.057,19.865,111.731,53.141c2.886,3.47,8.037,3.942,11.507,1.058
	c3.47-2.886,3.942-8.037,1.058-11.507c-28.963-34.824-71.881-56.419-116.125-58.803V70.269c18.624,3.795,32.681,20.3,32.681,40.028
	c0,4.513,3.657,8.17,8.17,8.17c4.513,0,8.17-3.657,8.17-8.17c0-23.967-14.826-44.524-35.782-53.018
	c4.211-1.442,8.675-2.202,13.254-2.202c10.904,0,21.164,4.253,28.886,11.976c1.596,1.595,3.688,2.392,5.778,2.392
	c2.09,0,4.182-0.797,5.778-2.392c3.191-3.192,3.191-8.364,0-11.555c-10.81-10.81-25.172-16.762-40.441-16.762
	c-7.78,0-15.321,1.552-22.281,4.498c6.674-13.499,20.587-22.809,36.638-22.809c4.513,0,8.17-3.657,8.17-8.17s-3.657-8.17-8.17-8.17
	c-20.777,0-39.004,11.14-49.021,27.758c-10.017-16.619-28.244-27.758-49.021-27.758c-4.513,0-8.17,3.657-8.17,8.17
	s3.657,8.17,8.17,8.17c16.052,0,29.964,9.31,36.638,22.809c-6.959-2.946-14.5-4.498-22.281-4.498
	c-15.269,0-29.632,5.952-40.441,16.762c-3.191,3.192-3.191,8.364,0,11.555c3.192,3.19,8.364,3.19,11.555,0
	c7.722-7.724,17.982-11.976,28.886-11.976c4.58,0,9.042,0.759,13.254,2.202c-20.956,8.494-35.782,29.051-35.782,53.018
	c0,4.513,3.657,8.17,8.17,8.17c4.513,0,8.17-3.657,8.17-8.17c0-19.728,14.057-36.233,32.681-40.028v113.789
	c-44.244,2.385-87.161,23.981-116.125,58.804C128.818,246.332,129.292,251.485,132.761,254.369z"/>
<path d="M507.396,252.735c-4.062-1.973-8.947-0.278-10.918,3.78c-7.922,16.313-24.099,26.445-42.217,26.445
	s-34.294-10.133-42.217-26.445c-1.366-2.814-4.22-4.601-7.349-4.601c-3.129,0-5.983,1.788-7.349,4.601
	c-7.922,16.313-24.099,26.445-42.217,26.445s-34.294-10.133-42.217-26.445c-1.366-2.814-4.22-4.601-7.349-4.601
	s-5.983,1.788-7.349,4.601c-7.922,16.313-24.099,26.445-42.217,26.445c-18.118,0-34.294-10.133-42.217-26.445
	c-1.366-2.814-4.22-4.601-7.349-4.601c-3.129,0-5.983,1.788-7.349,4.601c-7.922,16.313-24.099,26.445-42.217,26.445
	s-34.294-10.133-42.217-26.445c-1.366-2.814-4.22-4.601-7.349-4.601c-3.129,0-5.983,1.788-7.349,4.601
	c-7.922,16.313-24.099,26.445-42.217,26.445s-34.294-10.133-42.217-26.445c-1.971-4.059-6.857-5.753-10.918-3.78
	c-4.059,1.971-5.751,6.859-3.78,10.918c10.516,21.655,32.856,35.648,56.914,35.648c19.409,0,37.698-9.106,49.566-23.996
	c11.867,14.89,30.157,23.996,49.566,23.996s37.698-9.106,49.566-23.996c11.867,14.89,30.157,23.996,49.566,23.996
	s37.698-9.106,49.566-23.996c11.867,14.89,30.157,23.996,49.566,23.996c19.409,0,37.698-9.106,49.566-23.996
	c11.867,14.89,30.157,23.996,49.566,23.996c24.058,0,46.399-13.993,56.914-35.648C513.147,259.594,511.454,254.706,507.396,252.735z
	"/>
</svg>