<?xml version="1.0" encoding="iso-8859-1"?>
<!-- Uploaded to: SVG Repo, www.svgrepo.com, Generator: SVG Repo Mixer Tools -->
<svg height="800px" width="800px" version="1.1" id="Layer_1" xmlns="http://www.w3.org/2000/svg" xmlns:xlink="http://www.w3.org/1999/xlink" 
	 viewBox="0 0 512 512" xml:space="preserve">
<path style="fill:#4DBFBF;" d="M289.391,512H256c-9.217,0-16.696-7.473-16.696-16.696v-33.391c0-46.032,37.446-83.478,83.478-83.478
	h33.391c9.217,0,16.696,7.473,16.696,16.696v33.391C372.87,474.554,335.423,512,289.391,512z"/>
<path style="fill:#57D4D4;" d="M256,512h-33.391c-46.032,0-83.478-37.446-83.478-83.478V395.13c0-9.223,7.479-16.696,16.696-16.696
	h33.391c46.032,0,83.478,37.446,83.478,83.478v33.391C272.696,504.527,265.217,512,256,512z"/>
<path style="fill:#A6673A;" d="M272.696,512V283.826c0-9.223-7.479-16.696-16.696-16.696s-16.696,7.473-16.696,16.696V512H272.696z"
	/>
<path style="fill:#99522E;" d="M272.696,512V283.826c0-9.223-7.479-16.696-16.696-16.696V512H272.696z"/>
<path style="fill:#CC3B1F;" d="M256,300.522c-6.749,0-12.837-4.065-15.423-10.305c-2.587-6.24-1.152-13.424,3.62-18.196
	c18.108-18.114,28.499-43.184,28.499-68.782v-69.674c0-9.223,7.479-16.696,16.696-16.696c27.619,0,50.087-22.468,50.087-50.087
	c0-9.223,7.479-16.696,16.696-16.696c9.217,0,16.696,7.473,16.696,16.696v116.87C372.87,248.093,320.445,300.522,256,300.522z"/>
<path style="fill:#D9472B;" d="M256,300.522c-31.304,0-60.652-12.184-82.641-34.315c-22.044-21.908-34.228-51.256-34.228-82.554
	V66.783c0-9.223,7.479-16.696,16.696-16.696s16.696,7.473,16.696,16.696c0,13.429,5.196,25.978,14.641,35.337
	c9.468,9.549,22.022,14.75,35.446,14.75h66.783c9.217,0,16.696,7.473,16.696,16.696v69.674c0,34.386-13.956,68.065-38.283,92.392
	C264.674,298.761,260.424,300.522,256,300.522z"/>
<path style="fill:#E6563A;" d="M306.087,133.565H205.913c-36.883,0-66.783-29.9-66.783-66.783l0,0C139.13,29.9,169.03,0,205.913,0
	h100.174c36.883,0,66.783,29.9,66.783,66.783l0,0C372.87,103.666,342.97,133.565,306.087,133.565z"/>
<path style="fill:#CC3B1F;" d="M222.609,100.174H256c9.206,0,16.696,7.49,16.696,16.696s-7.49,16.696-16.696,16.696h47.01
	c1.87-5.248,3.076-10.813,3.076-16.696c0-27.619-22.468-50.087-50.087-50.087h-33.391c-9.217,0-16.696,7.473-16.696,16.696
	S213.392,100.174,222.609,100.174z"/>
</svg>